With the English voices of Kodi Smit-McPhee, Tucker Albrizzi and Anna Kendrick

English of Nederlands gesproken,
Een klein stadje wordt belegerd door zombies. Alleen de verkeerd begrepen lokale jongen Norman, die in staat is om met de doden te spreken, kan het stadje redden. Naast de zombies zal hij het op moeten nemen tegen spoken, heksen en, het ergste van alles: achterlijke volwassenen, om zo zijn stad te kunnen redden van een eeuwenoude vloek. De grenzen van zijn paranormale activiteiten zullen echter tot buitenaardse grenzen worden opgerekt...

English or Dutch spoken,
A misunderstood boy takes on ghosts, zombies and grown-ups to save his town from a centuries-old curse. 
 
http://www.imdb.com/title/tt1623288	

------------------------ Dutch Friends ------------------------
---------------------------------------------------------------
- Bezoek ook eens mijn vrienden op:  http://www.Film-Test.nl --
----- voor mijn Nederlandse Sync. ondertitels ---- en meer ----
------- http://www.Film-Test.nl ---- Over Films en meer -------
---------------------------------------------------------------

General:

Complete name                    : ParaNormanParaNorman.avi
Format                           : AVI
Format/Info                      : Audio Video Interleave
File size                        : 1.30 GiB
Duration                         : 1h 28mn
Overall bit rate                 : 2 107 Kbps

Video:

Format                           : MPEG-4 Visual
Format profile                   : Simple@L3
Format settings, BVOP            : No
Format settings, QPel            : No
Format settings, GMC             : No warppoints
Format settings, Matrix          : Default (H.263)
Codec ID                         : XVID
Codec ID/Hint                    : XviD
Duration                         : 1h 28mn
Bit rate                         : 1 322 Kbps
Width                            : 720 pixels
Height                           : 304 pixels
Display aspect ratio             : 2.35:1
Frame rate                       : 25.000 fps
Color space                      : YUV
Chroma subsampling               : 4:2:0
Bit depth                        : 8 bits
Scan type                        : Progressive
Compression mode                 : Lossy
Bits/(Pixel*Frame)               : 0.242
Stream size                      : 836 MiB (63%)
Writing library                  : XviD 1.1.2 (UTC 2006-11-01)

Audio's:

Format                           : AC-3
Format/Info                      : Audio Coding 3
Mode extension                   : CM (complete main)
Codec ID                         : 2000
Duration                         : 1h 28mn
Bit rate mode                    : Constant
Bit rate                         : 384 Kbps
Channel(s)                       : 6 channels
Channel positions                : Front: L C R, Side: L R, LFE
Sampling rate                    : 48.0 KHz
Bit depth                        : 16 bits
Compression mode                 : Lossy
Stream size                      : 243 MiB (18%)
Alignment                        : Aligned on interleaves
Interleave, duration             : 32 ms (0.80 video frame)
Interleave, preload duration     : 288 ms